<?xml version="1.0" encoding="utf-8" ?>
<svg baseProfile="tiny" height="2000px" version="1.2" width="18800px" xmlns="http://www.w3.org/2000/svg" xmlns:ev="http://www.w3.org/2001/xml-events" xmlns:xlink="http://www.w3.org/1999/xlink"><defs /><path d="M120,800 L720,0 V400 H18200 V0 L18800,800 L18200,1600 V1200 H720 V1600 Z" fill="#f0f0f0" stroke="#000" /><text font-family="Arial Narrow, Arial, sans-serif" font-size="160px" font-weight="bold" text-anchor="middle" x="1650.0" y="120">Brain</text><text font-family="Arial Narrow, Arial, sans-serif" font-size="160px" font-weight="bold" text-anchor="middle" x="1650.0" y="280">storm</text><rect fill="#24387F" height="600" stroke="black" width="1488" x="900" y="500" /><rect fill="#009DDC" height="600" stroke="black" width="12" x="2388" y="500" /><line stroke="darkblue" stroke-width="2" x1="2400" x2="2400" y1="10" y2="1600" /><text font-family="Arial Narrow, Arial, sans-serif" font-size="160px" font-weight="bold" text-anchor="middle" x="5400.0" y="120">Discovery </text><rect fill="#24387F" height="600" stroke="black" width="5700" x="2400" y="500" /><rect fill="#009DDC" height="600" stroke="black" width="300" x="8100" y="500" /><line stroke="darkblue" stroke-width="2" x1="8400" x2="8400" y1="10" y2="1600" /><text font-family="Arial Narrow, Arial, sans-serif" font-size="160px" font-weight="bold" text-anchor="middle" x="9150.0" y="120">Refinement Session</text><rect fill="#24387F" height="600" stroke="black" width="1488" x="8400" y="500" /><rect fill="#009DDC" height="600" stroke="black" width="12" x="9888" y="500" /><line stroke="darkblue" stroke-width="2" x1="9900" x2="9900" y1="10" y2="1600" /><text font-family="Arial Narrow, Arial, sans-serif" font-size="160px" font-weight="bold" text-anchor="middle" x="11400.0" y="120">Sprint Planning</text><rect fill="#24387F" height="600" stroke="black" width="2991" x="9900" y="500" /><rect fill="#009DDC" height="600" stroke="black" width="9" x="12891" y="500" /><line stroke="darkblue" stroke-width="2" x1="12900" x2="12900" y1="10" y2="1600" /><text font-family="Arial Narrow, Arial, sans-serif" font-size="160px" font-weight="bold" text-anchor="middle" x="14400.0" y="120">Develop &amp; Test</text><rect fill="#24387F" height="600" stroke="black" width="1500" x="12900" y="500" /><rect fill="#009DDC" height="600" stroke="black" width="1500" x="14400" y="500" /><line stroke="darkblue" stroke-width="2" x1="15900" x2="15900" y1="10" y2="1600" /><text font-family="Arial Narrow, Arial, sans-serif" font-size="160px" font-weight="bold" text-anchor="middle" x="16650.0" y="120">RFC/Approvals</text><rect fill="#24387F" height="600" stroke="black" width="1440" x="15900" y="500" /><rect fill="#009DDC" height="600" stroke="black" width="60" x="17340" y="500" /><line stroke="darkblue" stroke-width="2" x1="17400" x2="17400" y1="10" y2="1600" /><text font-family="Arial Narrow, Arial, sans-serif" font-size="160px" font-weight="bold" text-anchor="middle" x="17550.0" y="120">Deployment</text><text font-family="Arial Narrow, Arial, sans-serif" font-size="160px" font-weight="bold" text-anchor="middle" x="17550.0" y="280">to Prod</text><rect fill="#24387F" height="600" stroke="black" width="150" x="17400" y="500" /><rect fill="#009DDC" height="600" stroke="black" width="150" x="17550" y="500" /><line stroke="darkblue" stroke-width="2" x1="17700" x2="17700" y1="10" y2="1600" /></svg>